<svg xmlns="http://www.w3.org/2000/svg" xmlns:xlink="http://www.w3.org/1999/xlink" width="512" zoomAndPan="magnify" viewBox="0 0 384 383.999986" height="512" preserveAspectRatio="xMidYMid meet" version="1.0"><path fill="#6180ab" d="M 194.226562 12.039062 L 220.855469 108.800781 L 292.65625 64.675781 L 273.300781 157.570312 L 382.066406 192.019531 L 273.222656 226.429688 L 292.578125 319.324219 L 220.855469 275.121094 L 194.226562 371.886719 L 167.597656 275.121094 L 95.796875 319.246094 L 115.382812 226.351562 L 2.011719 192.019531 L 115.382812 157.570312 L 95.796875 64.675781 L 167.597656 108.878906 L 194.226562 12.113281 M 194.226562 0 C 193.878906 0 193.488281 0.582031 193.179688 1.742188 L 167.132812 96.492188 L 95.992188 52.757812 L 95.796875 52.757812 C 94.984375 52.757812 94.25 55.699219 93.9375 60.265625 C 93.570312 64.945312 93.765625 69.601562 94.519531 74.238281 L 110 147.199219 L 1.898438 179.980469 C 0.851562 180.292969 0 185.789062 0 192.019531 C 0 198.25 0.851562 203.632812 1.898438 204.019531 L 109.964844 236.839844 L 94.519531 309.644531 C 93.765625 314.28125 93.570312 318.9375 93.9375 323.617188 C 94.25 328.226562 94.984375 331.128906 95.796875 331.128906 L 95.992188 331.128906 L 167.132812 287.546875 L 193.179688 382.257812 C 193.488281 383.417969 193.878906 384 194.226562 384 C 194.574219 384 194.960938 383.417969 195.269531 382.257812 L 221.320312 287.546875 L 292.460938 331.242188 C 293.273438 331.242188 294.007812 328.339844 294.320312 323.773438 C 294.6875 319.09375 294.492188 314.433594 293.738281 309.800781 L 278.679688 236.800781 L 382.140625 204.019531 C 383.226562 203.707031 384.039062 198.40625 384.039062 192.019531 C 384.039062 185.632812 383.226562 180.40625 382.140625 179.980469 L 278.679688 147.082031 L 293.894531 74.316406 C 294.492188 71.117188 294.765625 67.890625 294.707031 64.636719 C 294.707031 57.980469 293.816406 52.601562 292.691406 52.601562 L 221.320312 96.492188 L 195.269531 1.742188 C 194.960938 0.582031 194.574219 0 194.226562 0 Z M 194.226562 0 " fill-opacity="1" fill-rule="nonzero"/><path fill="#6180ab" d="M 169.375 108.375 L 193.527344 21.441406 L 193.527344 183.273438 Z M 200.339844 178.394531 L 276.824219 79.8125 L 221.125 114.027344 Z M 348.429688 186.5625 L 273.300781 162.835938 L 218.570312 186.714844 Z M 289.171875 309.296875 L 272.914062 231.617188 L 206.726562 202.78125 Z M 195.117188 362.558594 L 219.074219 275.507812 L 195.117188 200.726562 Z M 111.628906 304.1875 L 167.324219 269.972656 L 187.992188 205.488281 Z M 115.496094 221.125 L 169.957031 197.398438 L 36.925781 197.398438 Z M 181.683594 181.21875 L 99.320312 74.742188 L 115.730469 152.421875 Z M 181.683594 181.21875 " fill-opacity="1" fill-rule="evenodd"/></svg>