<svg xmlns="http://www.w3.org/2000/svg" viewBox="0 0 496.68 181.49"><defs><style>.cls-1,.cls-2{fill:#1c1c1b;}.cls-1{fill-rule:evenodd;}</style></defs><g id="Layer_2" data-name="Layer 2"><g id="Layer_1-2" data-name="Layer 1"><path class="cls-1" d="M52.53,38.62l-2,20.2H3.21V57.25H5a7,7,0,0,0,3.73-.89,3.79,3.79,0,0,0,1.58-2A19.1,19.1,0,0,0,10.72,49V11.15a20.84,20.84,0,0,0-.43-5.52A4.07,4.07,0,0,0,8.54,3.71,6.67,6.67,0,0,0,5,2.88H3.21V1.3H31.63V2.88H29.31a7,7,0,0,0-3.74.88A4.14,4.14,0,0,0,24,5.81a19.16,19.16,0,0,0-.43,5.34V47.79A20,20,0,0,0,24,53.4a3.23,3.23,0,0,0,1.85,1.81,17.17,17.17,0,0,0,4.75.38H35A14.21,14.21,0,0,0,42.12,54,13.57,13.57,0,0,0,47,48.89a42.81,42.81,0,0,0,3.91-10.27Z"/><path class="cls-1" d="M88.92,23.32l18.74,25.32q4,5.34,6.84,7.25a8,8,0,0,0,4.4,1.36v1.57H91.16V57.25a7.05,7.05,0,0,0,3.4-.89,1.93,1.93,0,0,0,.77-1.57c0-1.18-1.2-3.43-3.62-6.7L79.49,31.5l-2,1.78V49q0,4.5.48,5.61a4.14,4.14,0,0,0,1.8,1.88,8.77,8.77,0,0,0,4.29.79v1.57H57.21V57.25H59a6.93,6.93,0,0,0,3.73-.89,3.69,3.69,0,0,0,1.57-2c.3-.67.43-2.45.43-5.35V11.15a20,20,0,0,0-.43-5.52,4,4,0,0,0-1.74-1.92A6.7,6.7,0,0,0,59,2.88H57.21V1.3H83.73V2.88a8.18,8.18,0,0,0-4.12.84,4.07,4.07,0,0,0-1.61,2q-.48,1.07-.48,5.43V29L97.29,11.78q4.13-3.6,4.13-5.76a2.84,2.84,0,0,0-1.69-2.55,12.81,12.81,0,0,0-4.29-.59V1.3h20.79V2.88A11.08,11.08,0,0,0,111.86,4a63.5,63.5,0,0,0-7.34,5.88L88.92,23.32Z"/><path class="cls-1" d="M197.77,1.3H183.94V2.88c2.07.06,3.48.42,4.22,1.07a3.57,3.57,0,0,1,1.1,2.74,11.34,11.34,0,0,1-.33,2.59,51.12,51.12,0,0,1-1.69,5.21l-8.68,24.65-9.71-27.23a31,31,0,0,1-1.77-6,2.84,2.84,0,0,1,.47-1.6,2.71,2.71,0,0,1,1.3-1,13.13,13.13,0,0,1,3.89-.46V1.3H146.92V2.88a7.71,7.71,0,0,1,3.76.72A6.15,6.15,0,0,1,152.93,6a47.38,47.38,0,0,1,2.81,6.68l2.2,6.11-8.38,21.8L139.1,12.67c-1.27-3.48-1.92-5.75-1.92-6.82a2.63,2.63,0,0,1,.93-2.06c.6-.55,1.85-.85,3.7-.91V1.3h-23.1V2.88a4.62,4.62,0,0,1,3.57,1.74q1.06,1.47,3.74,8.57l17.52,46.94H145l14.54-37.07,13.2,37.07h1.53L191,12.67c1.5-4,2.32-6.23,2.48-6.58a6.58,6.58,0,0,1,1.81-2.33,4.93,4.93,0,0,1,2.51-.88V1.3Z"/><polygon class="cls-1" points="220.37 43.26 197.45 43.26 197.45 34.47 220.37 34.47 220.37 43.26 220.37 43.26"/><path class="cls-2" d="M275.73,55.72Q274,54,271.21,47.28L252,.12h-.75L232.19,46c-1.8,4.38-3.32,7.28-4.56,8.67a7.69,7.69,0,0,1-4.71,2.57v1.57h17.72V57.25c-2.77-.23-4.52-.56-5.22-1a3.92,3.92,0,0,1-1.81-3.57,13.28,13.28,0,0,1,1.1-4.61L237,42.44h18.82l2.83,7.17c.74,1.87,1.13,2.92,1.18,3.19a5.38,5.38,0,0,1,.24,1.56,2.32,2.32,0,0,1-.87,2c-.83.63-2.29.94-4.36.94h-1.06v1.57h25.78V57.25A6,6,0,0,1,275.73,55.72ZM238.32,39.3l8.18-19.8,7.93,19.8Z"/><path class="cls-1" d="M331.22,38.62l-2,20.2H281.9V57.25h1.77a6.93,6.93,0,0,0,3.73-.89,3.74,3.74,0,0,0,1.58-2c.29-.67.43-2.45.43-5.35V11.15A20.4,20.4,0,0,0,289,5.63a4.07,4.07,0,0,0-1.75-1.92,6.65,6.65,0,0,0-3.56-.83H281.9V1.3h28.42V2.88H308a7,7,0,0,0-3.74.88,4.14,4.14,0,0,0-1.61,2.05,19.16,19.16,0,0,0-.43,5.34V47.79a20,20,0,0,0,.47,5.61,3.23,3.23,0,0,0,1.85,1.81,17.17,17.17,0,0,0,4.75.38h4.44A14.21,14.21,0,0,0,320.81,54a13.57,13.57,0,0,0,4.89-5.09,42.81,42.81,0,0,0,3.91-10.27Z"/><path class="cls-1" d="M356,4.62V28h1.06c3.38,0,5.83-1.15,7.35-3.43s2.49-5.68,2.92-10.14h1.48V44.57h-1.48a24.35,24.35,0,0,0-2-8.06,9.1,9.1,0,0,0-3.53-4.23A12.63,12.63,0,0,0,356,31.21v16.2a24.93,24.93,0,0,0,.38,5.81A3.35,3.35,0,0,0,357.8,55a5.91,5.91,0,0,0,3.29.68h3.18c5,0,9-1.24,12-3.73s5.15-6.27,6.46-11.37h1.45l-2.38,18.29H335.7V57.25h1.77a6.93,6.93,0,0,0,3.73-.89,3.69,3.69,0,0,0,1.57-2c.3-.67.44-2.45.44-5.35V11.15a30.84,30.84,0,0,0-.2-4.79,4,4,0,0,0-1.45-2.29,6.36,6.36,0,0,0-4.09-1.19H335.7V1.3h44.6v17h-1.49q-1.14-6.22-3.2-8.94a11.63,11.63,0,0,0-5.84-4c-1.46-.53-4.21-.77-8.25-.77Z"/><path class="cls-1" d="M421.29,23.32,440,48.64q4,5.34,6.84,7.25a8,8,0,0,0,4.4,1.36v1.57H423.53V57.25a7.05,7.05,0,0,0,3.4-.89,1.94,1.94,0,0,0,.78-1.57c0-1.18-1.21-3.43-3.63-6.7L411.86,31.5l-2,1.78V49q0,4.5.49,5.61a4.06,4.06,0,0,0,1.79,1.88,8.79,8.79,0,0,0,4.3.79v1.57H389.59V57.25h1.77a6.9,6.9,0,0,0,3.72-.89,3.69,3.69,0,0,0,1.57-2c.3-.67.43-2.45.43-5.35V11.15a20,20,0,0,0-.43-5.52,4,4,0,0,0-1.74-1.92,6.69,6.69,0,0,0-3.55-.83h-1.77V1.3H416.1V2.88a8.14,8.14,0,0,0-4.11.84,4,4,0,0,0-1.61,2c-.33.71-.49,2.52-.49,5.43V29l19.77-17.26c2.75-2.4,4.14-4.32,4.14-5.76a2.85,2.85,0,0,0-1.69-2.55,12.94,12.94,0,0,0-4.3-.59V1.3H448.6V2.88A11.08,11.08,0,0,0,444.23,4a63.5,63.5,0,0,0-7.34,5.88l-15.6,13.49Z"/><path class="cls-1" d="M489.73,0l.44,19.17h-1.63A20.12,20.12,0,0,0,483,7.56c-3-2.93-6.18-4.39-9.64-4.39A8.61,8.61,0,0,0,467,5.49a7.21,7.21,0,0,0-2.34,5.32,6.86,6.86,0,0,0,.83,3.39,13.59,13.59,0,0,0,3.65,3.94,77.88,77.88,0,0,0,8.53,5q9.35,5,12.6,9.39a16.54,16.54,0,0,1,3.24,10.08A17,17,0,0,1,488.26,55,18,18,0,0,1,475,60.18a20.17,20.17,0,0,1-4.76-.55,35.35,35.35,0,0,1-5.62-2.09,8.15,8.15,0,0,0-3.1-.84,3.65,3.65,0,0,0-2.16.84,5.89,5.89,0,0,0-1.85,2.59H456.1V38.42h1.45q1.72,9.16,6.66,14t10.63,4.82a9.55,9.55,0,0,0,7-2.59,8.2,8.2,0,0,0,2.62-6,8.38,8.38,0,0,0-1-4,12.38,12.38,0,0,0-3-3.62,45.32,45.32,0,0,0-7.23-4.48A61.18,61.18,0,0,1,462.74,30a19.65,19.65,0,0,1-4.9-6.07,16,16,0,0,1-1.72-7.38,16.26,16.26,0,0,1,4.69-11.71A15.76,15.76,0,0,1,472.6,0a18.77,18.77,0,0,1,5,.67,23.82,23.82,0,0,1,4.49,1.89,10.33,10.33,0,0,0,3.72,1.38,2,2,0,0,0,1.6-.68A7.75,7.75,0,0,0,488.54,0Z"/><path class="cls-1" d="M101.69,152.63l.25,9.19H101a9.19,9.19,0,0,0-3.14-5.56,8.22,8.22,0,0,0-5.41-2.11,5.31,5.31,0,0,0-3.55,1.11,3.27,3.27,0,0,0-1.32,2.56,2.9,2.9,0,0,0,.47,1.62,7,7,0,0,0,2,1.89,47.78,47.78,0,0,0,4.78,2.38q5.25,2.39,7.07,4.5a7.17,7.17,0,0,1,1.82,4.84,7.58,7.58,0,0,1-2.92,5.94,11,11,0,0,1-7.42,2.5,12.72,12.72,0,0,1-2.67-.27,21.76,21.76,0,0,1-3.15-1,5.09,5.09,0,0,0-1.74-.4,2.26,2.26,0,0,0-1.21.4,2.82,2.82,0,0,0-1,1.25h-.82V171.05h.82a11.59,11.59,0,0,0,3.73,6.7,9.14,9.14,0,0,0,6,2.31,5.84,5.84,0,0,0,3.93-1.24,3.7,3.7,0,0,0,1.47-2.89,3.6,3.6,0,0,0-.56-1.89,6.23,6.23,0,0,0-1.71-1.74,26.19,26.19,0,0,0-4.06-2.14A35.82,35.82,0,0,1,86.56,167a9.9,9.9,0,0,1-2.75-2.91,6.77,6.77,0,0,1-1-3.54,7.28,7.28,0,0,1,2.62-5.62,9.67,9.67,0,0,1,6.61-2.31,12.5,12.5,0,0,1,2.82.32,15,15,0,0,1,2.52.91,6.43,6.43,0,0,0,2.09.66,1.22,1.22,0,0,0,.9-.33,3.36,3.36,0,0,0,.62-1.56Zm27.37,15.72V176a7.78,7.78,0,0,0,.3,2.81,2.11,2.11,0,0,0,1,.93,7.68,7.68,0,0,0,2.79.34v.75H118v-.75a7.14,7.14,0,0,0,2.81-.36,2.16,2.16,0,0,0,1-.92,8,8,0,0,0,.29-2.8V158.1a8.23,8.23,0,0,0-.29-2.82,2.14,2.14,0,0,0-1.05-.92A7.58,7.58,0,0,0,118,154v-.75h13c4.29,0,7.37.71,9.23,2.11a6.4,6.4,0,0,1,2.8,5.29,6.48,6.48,0,0,1-1.8,4.6,9.46,9.46,0,0,1-5,2.6,36.41,36.41,0,0,1-7.23.49Zm0-13.5v11.91c.49,0,.85.05,1.1.05a5.57,5.57,0,0,0,4.14-1.48,6.29,6.29,0,0,0,1.46-4.57,6,6,0,0,0-1.46-4.49,6,6,0,0,0-4.34-1.42Zm36.47,0v11.22h.59a4.94,4.94,0,0,0,4.13-1.64,9.72,9.72,0,0,0,1.63-4.86h.83V174h-.83a10.13,10.13,0,0,0-1.12-3.86,4.6,4.6,0,0,0-2-2,8.19,8.19,0,0,0-3.26-.51v7.76a10.37,10.37,0,0,0,.21,2.79,1.68,1.68,0,0,0,.78.83,3.88,3.88,0,0,0,1.85.33h1.78a11.37,11.37,0,0,0,6.71-1.79,9.88,9.88,0,0,0,3.63-5.45h.81L180,180.83H154.13v-.75h1a4.36,4.36,0,0,0,2.09-.43,1.83,1.83,0,0,0,.88-1,7.73,7.73,0,0,0,.25-2.57V158a12.25,12.25,0,0,0-.12-2.3,2,2,0,0,0-.81-1.1,4,4,0,0,0-2.29-.57h-1v-.75h25v8.15h-.83a9.49,9.49,0,0,0-1.8-4.29,6.74,6.74,0,0,0-3.27-1.9,18.75,18.75,0,0,0-4.63-.37Zm29.68,26v-.75h1a4.08,4.08,0,0,0,2-.38,2.36,2.36,0,0,0,1-1,9.12,9.12,0,0,0,.2-2.57V158a8.13,8.13,0,0,0-.25-2.65,2.05,2.05,0,0,0-1-.92,4.23,4.23,0,0,0-2-.4h-1v-.75h13.37a23.12,23.12,0,0,1,8.62,1.34,12.46,12.46,0,0,1,6.05,5,14.12,14.12,0,0,1,2.06,7.55,13.75,13.75,0,0,1-1,5.35,12.15,12.15,0,0,1-2.61,4.05A12.88,12.88,0,0,1,218,179.1a21.27,21.27,0,0,1-5.14,1.49,26.73,26.73,0,0,1-4.24.24Zm11.39-26v21.51a6.8,6.8,0,0,0,.18,2.09,1.17,1.17,0,0,0,.59.59,3.77,3.77,0,0,0,1.72.31,6.9,6.9,0,0,0,5.62-2.32c1.76-2.09,2.64-5.32,2.64-9.72a17.17,17.17,0,0,0-1.8-8.48,7.48,7.48,0,0,0-3.68-3.37,15,15,0,0,0-5.27-.61ZM255,180.08v.75H239.39v-.75h1a4.31,4.31,0,0,0,2.09-.43,1.8,1.8,0,0,0,.88-1,7.45,7.45,0,0,0,.25-2.57V158a8.13,8.13,0,0,0-.25-2.65,2.05,2.05,0,0,0-1-.92,4.23,4.23,0,0,0-2-.4h-1v-.75H255V154h-1a4.31,4.31,0,0,0-2.09.43,2,2,0,0,0-.91,1,8.11,8.11,0,0,0-.24,2.56v18.13a8.44,8.44,0,0,0,.25,2.65,2.23,2.23,0,0,0,1,.92,4.2,4.2,0,0,0,2,.4Zm40-26.82v7.47h-.79a11.5,11.5,0,0,0-1.57-3.72,5.86,5.86,0,0,0-2.36-1.79,8,8,0,0,0-2.93-.37h-2.22v21.26a8.13,8.13,0,0,0,.25,2.65,2.18,2.18,0,0,0,1,.92,4.26,4.26,0,0,0,2,.4h1v.75H273.72v-.75h1a4.36,4.36,0,0,0,2.09-.43,2,2,0,0,0,.9-1,7.45,7.45,0,0,0,.25-2.57V154.85h-2.17a6.61,6.61,0,0,0-4.38,1.18,7.5,7.5,0,0,0-2.42,4.7h-.84v-7.47Zm28.62,26.82v.75H308v-.75h1a4.31,4.31,0,0,0,2.09-.43,1.8,1.8,0,0,0,.88-1,7.45,7.45,0,0,0,.25-2.57V158a8.13,8.13,0,0,0-.25-2.65,2,2,0,0,0-1-.92,4.3,4.3,0,0,0-2-.4h-1v-.75h15.62V154h-1a4.33,4.33,0,0,0-2.09.43,1.93,1.93,0,0,0-.9,1,7.81,7.81,0,0,0-.24,2.56v18.13a8.56,8.56,0,0,0,.24,2.65,2.26,2.26,0,0,0,1,.92,4.13,4.13,0,0,0,2,.4Zm29.75-27.2q7.14-.25,11.6,3.83a13.29,13.29,0,0,1,4.46,10.23,14,14,0,0,1-3.32,9.24q-4.41,5.28-12.45,5.29c-5.38,0-9.53-1.68-12.48-5.05a14,14,0,0,1-3.48-9.45,13.22,13.22,0,0,1,4.53-10.24,15,15,0,0,1,11.14-3.85Zm.27,1.29a6.77,6.77,0,0,0-6.24,3.87q-1.74,3.17-1.74,9.11,0,7,2.68,10.43a6.35,6.35,0,0,0,5.25,2.36,6.76,6.76,0,0,0,3.8-1,8.45,8.45,0,0,0,3-4.17,21.43,21.43,0,0,0,1.08-7.45,22.79,22.79,0,0,0-1.1-8.18,8.06,8.06,0,0,0-2.81-3.84,7.06,7.06,0,0,0-3.93-1.12Zm39.92-.91,14.74,17.1V158.5a5.31,5.31,0,0,0-.76-3.35A4.53,4.53,0,0,0,404,154v-.75h9.87V154a8,8,0,0,0-2.55.58,2.42,2.42,0,0,0-1,1.16,7.39,7.39,0,0,0-.36,2.75v23h-.76l-20.2-23V176c0,1.58.39,2.65,1.18,3.2a4.49,4.49,0,0,0,2.7.84h.7v.75H383v-.75a5,5,0,0,0,3.43-.93,4.14,4.14,0,0,0,1-3.11V156.58l-.64-.74a5.58,5.58,0,0,0-1.67-1.44A5.42,5.42,0,0,0,383,154v-.75Z"/><path class="cls-2" d="M251.21,69.24l34.45,20.93,92.86-9.54-25.11,20.06,140.67,7.44-140.67,7.44,25.11,20.06-92.86-9.53L251.21,147,216.76,126.1l-92.87,9.53,25.36-20.06L2.6,108.13l146.65-7.44L123.89,80.63l92.87,9.54,34.45-20.93M378.52,80.63h0m-127.33-14a2.51,2.51,0,0,0-1.35.38L216.15,87.49l-92-9.45h-.27a2.6,2.6,0,0,0-1.61,4.64l19.93,15.77L2.47,105.53a2.6,2.6,0,0,0,0,5.2l139.74,7.09-19.93,15.77a2.61,2.61,0,0,0,1.61,4.65l.27,0,92-9.44,33.71,20.47a2.6,2.6,0,0,0,1.35.38,2.63,2.63,0,0,0,1.35-.38l33.7-20.47,92,9.44.27,0a2.61,2.61,0,0,0,1.62-4.64l-19.77-15.79,133.83-7.08a2.6,2.6,0,0,0,0-5.2L360.38,98.45l19.7-15.73A2.6,2.6,0,0,0,378.54,78h-.1l-.22,0-92,9.44L252.56,67a2.53,2.53,0,0,0-1.35-.38Z"/><path class="cls-1" d="M219.09,90.09l31-18.81v35ZM450.83,107l-97.34-5.16L282.68,107ZM374,133.48l-21-16.79-85.57-6.23ZM252.35,145l31-18.82-31-16.15Zm-108-12.61,72-7.4L243.15,111Zm4.87-17.95,70.57-5.15H47.74ZM235,105.8l-106.52-23,21.22,16.78Z"/></g></g></svg>