<!DOCTYPE svg PUBLIC "-//W3C//DTD SVG 1.1//EN" "http://www.w3.org/Graphics/SVG/1.1/DTD/svg11.dtd">
<!-- Uploaded to: SVG Repo, www.svgrepo.com, Transformed by: SVG Repo Mixer Tools -->
<svg fill="#000000" height="800px" width="800px" version="1.1" id="Capa_1" xmlns="http://www.w3.org/2000/svg" xmlns:xlink="http://www.w3.org/1999/xlink" viewBox="0 0 470 470" xml:space="preserve" stroke="#000000" stroke-width="4.7">
<g id="SVGRepo_bgCarrier" stroke-width="0"/>
<g id="SVGRepo_tracerCarrier" stroke-linecap="round" stroke-linejoin="round" stroke="#CCCCCC" stroke-width="3.7600000000000002"/>
<g id="SVGRepo_iconCarrier"> <g> <path d="M235,181.153c49.943,0,90.576-40.632,90.576-90.576S284.943,0,235,0s-90.576,40.632-90.576,90.576 S185.057,181.153,235,181.153z M235,15c41.673,0,75.576,33.903,75.576,75.576S276.673,166.153,235,166.153 s-75.576-33.903-75.576-75.576S193.327,15,235,15z"/> <path d="M202.389,211.906c-4.069,0.773-6.741,4.699-5.968,8.769c0.684,3.596,3.829,6.101,7.359,6.101 c0.465,0,0.937-0.043,1.409-0.133c19.458-3.698,39.992-3.709,59.452-0.032c4.064,0.768,7.993-1.906,8.762-5.977 c0.77-4.07-1.906-7.993-5.977-8.762C246.129,207.847,223.683,207.859,202.389,211.906z"/> <path d="M235,138.268c15.97,0,30.862-7.924,39.838-21.197c2.32-3.431,1.42-8.094-2.012-10.414s-8.094-1.419-10.414,2.012 c-6.182,9.142-16.429,14.599-27.412,14.599c-10.982,0-21.23-5.458-27.412-14.6c-2.319-3.431-6.981-4.332-10.414-2.012 c-3.432,2.32-4.332,6.983-2.012,10.414C204.138,130.344,219.03,138.268,235,138.268z"/> <path d="M279.875,257.375c0,36.324,29.552,65.875,65.875,65.875s65.875-29.551,65.875-65.875S382.073,191.5,345.75,191.5 S279.875,221.051,279.875,257.375z M345.75,206.5c28.053,0,50.875,22.822,50.875,50.875s-22.822,50.875-50.875,50.875 s-50.875-22.822-50.875-50.875S317.697,206.5,345.75,206.5z"/> <path d="M345.75,293.117c11.963,0,23.118-5.935,29.84-15.875c2.32-3.432,1.42-8.094-2.012-10.414 c-3.432-2.321-8.094-1.419-10.414,2.012c-3.928,5.81-10.438,9.278-17.414,9.278s-13.485-3.468-17.414-9.278 c-2.319-3.431-6.981-4.332-10.414-2.012c-3.432,2.32-4.332,6.982-2.012,10.414C322.632,287.182,333.787,293.117,345.75,293.117z"/> <path d="M124.25,323.25c36.323,0,65.875-29.551,65.875-65.875S160.573,191.5,124.25,191.5s-65.875,29.551-65.875,65.875 S87.927,323.25,124.25,323.25z M124.25,206.5c28.053,0,50.875,22.822,50.875,50.875s-22.822,50.875-50.875,50.875 s-50.875-22.822-50.875-50.875S96.197,206.5,124.25,206.5z"/> <path d="M124.25,293.117c11.963,0,23.118-5.935,29.84-15.875c2.32-3.432,1.42-8.094-2.012-10.414 c-3.432-2.321-8.094-1.419-10.414,2.012c-3.928,5.81-10.438,9.278-17.414,9.278s-13.485-3.468-17.414-9.278 c-2.319-3.431-6.981-4.332-10.414-2.012c-3.432,2.32-4.332,6.982-2.012,10.414C101.132,287.182,112.287,293.117,124.25,293.117z"/> <path d="M124.25,338.25C55.738,338.25,0,393.988,0,462.5c0,4.142,3.357,7.5,7.5,7.5s7.5-3.358,7.5-7.5 c0-60.241,49.01-109.25,109.25-109.25S233.5,402.259,233.5,462.5c0,4.142,3.357,7.5,7.5,7.5s7.5-3.358,7.5-7.5 C248.5,393.988,192.762,338.25,124.25,338.25z"/> <path d="M345.75,338.25c-39.118,0-75.165,17.869-98.898,49.025c-2.511,3.295-1.874,8.001,1.421,10.511 c3.297,2.51,8,1.873,10.511-1.421c20.872-27.4,52.57-43.115,86.967-43.115c60.24,0,109.25,49.009,109.25,109.25 c0,4.142,3.357,7.5,7.5,7.5s7.5-3.358,7.5-7.5C470,393.988,414.262,338.25,345.75,338.25z"/> </g> </g>
</svg>