<?xml version="1.0" encoding="iso-8859-1"?>
<!-- Uploaded to: SVG Repo, www.svgrepo.com, Generator: SVG Repo Mixer Tools -->
<svg fill="#000000" height="800px" width="800px" version="1.1" id="Layer_1" xmlns="http://www.w3.org/2000/svg" xmlns:xlink="http://www.w3.org/1999/xlink" 
	 viewBox="0 0 512 512" xml:space="preserve">
<g>
	<g>
		<path d="M430.545,267.636c6.423,0,11.636-5.201,11.636-11.636c0-102.656-83.526-186.182-186.182-186.182c-0.012,0-0.012,0-0.012,0
			C153.332,69.83,69.818,153.344,69.818,256s83.514,186.182,186.17,186.182c83.491,0,157.3-56.145,179.479-136.529
			c1.711-6.191-1.932-12.602-8.122-14.301c-6.191-1.699-12.602,1.932-14.313,8.122c-18.362,66.56-77.207,114.048-145.396,118.947
			v-69.329h49.676c-0.826,2.479-1.478,5.143-2.385,7.54c-2.257,6.016,0.78,12.73,6.796,14.988c1.35,0.5,2.734,0.745,4.096,0.745
			c4.713,0,9.146-2.874,10.892-7.54c1.885-5.015,3.386-10.426,4.98-15.732h19.037c6.423,0,11.636-5.201,11.636-11.636
			c0-6.435-5.213-11.636-11.636-11.636h-13.114c3.887-18.444,6.191-37.958,6.831-58.182H430.545z M198.481,103.773
			c-11.671,15.488-21.376,35.619-28.463,59.136h-47.523C141.161,136.239,167.587,115.491,198.481,103.773z M122.496,349.091h47.535
			c7.156,23.785,16.849,43.823,28.358,59.101C167.54,396.474,141.137,375.738,122.496,349.091z M244.364,416.71
			c-19.654-7.121-37.946-31.779-49.92-67.619h49.92V416.71z M244.364,325.83H109.033v-0.012
			C98.921,304.617,93.091,281.007,93.091,256s5.83-48.617,15.942-69.818h55.075c-3.782,18.083-6.074,37.632-6.714,58.182H128
			c-6.423,0-11.636,5.201-11.636,11.636c0,6.435,5.213,11.636,11.636,11.636h29.382c0.268,8.239,0.698,16.442,1.513,24.46
			c0.652,6.388,6.307,10.903,12.753,10.403c6.4-0.652,11.055-6.365,10.403-12.765c-0.733-7.226-1.14-14.639-1.396-22.086h63.709
			V325.83z M244.364,244.364h-63.721c0.71-20.608,3.305-40.227,7.389-58.182h56.332V244.364z M256,116.364
			c-6.423,0-11.636,5.201-11.636,11.636v34.909h-49.92c13.847-41.856,36.492-69.818,61.556-69.818s47.709,27.962,61.556,69.818
			h-49.92V128C267.636,121.565,262.423,116.364,256,116.364z M302.545,267.636h28.625c-0.687,20.375-3.142,39.948-7.331,58.182
			h-56.204V186.182h56.332c4.084,17.955,6.668,37.574,7.389,58.182h-28.812c-6.423,0-11.636,5.201-11.636,11.636
			C290.909,262.435,296.122,267.636,302.545,267.636z M360.727,162.909h-18.758c-7.11-23.587-16.849-43.776-28.567-59.276
			c21.423,8.064,41.123,20.503,57.786,37.178c28.009,28.009,44.567,64.419,47.302,103.552h-63.884
			c-0.652-20.55-2.932-40.099-6.714-58.182h12.835c6.423,0,11.636-5.201,11.636-11.636
			C372.364,168.111,367.151,162.909,360.727,162.909z"/>
	</g>
</g>
<g>
	<g>
		<circle cx="256" cy="11.636" r="11.636"/>
	</g>
</g>
<g>
	<g>
		<circle cx="256" cy="500.364" r="11.636"/>
	</g>
</g>
<g>
	<g>
		<circle cx="192.747" cy="19.973" r="11.636"/>
	</g>
</g>
<g>
	<g>
		<circle cx="319.203" cy="491.975" r="11.636"/>
	</g>
</g>
<g>
	<g>
		<circle cx="133.812" cy="44.37" r="11.636"/>
	</g>
</g>
<g>
	<g>
		<circle cx="378.193" cy="467.648" r="11.636"/>
	</g>
</g>
<g>
	<g>
		<circle cx="83.211" cy="83.212" r="11.636"/>
	</g>
</g>
<g>
	<g>
		<circle cx="428.775" cy="428.788" r="11.636"/>
	</g>
</g>
<g>
	<g>
		<circle cx="44.399" cy="133.794" r="11.636"/>
	</g>
</g>
<g>
	<g>
		<circle cx="467.665" cy="378.129" r="11.636"/>
	</g>
</g>
<g>
	<g>
		<circle cx="19.959" cy="192.739" r="11.636"/>
	</g>
</g>
<g>
	<g>
		<circle cx="492.003" cy="319.324" r="11.636"/>
	</g>
</g>
<g>
	<g>
		<circle cx="11.636" cy="256" r="11.636"/>
	</g>
</g>
<g>
	<g>
		<circle cx="500.364" cy="256" r="11.636"/>
	</g>
</g>
<g>
	<g>
		<circle cx="19.987" cy="319.236" r="11.636"/>
	</g>
</g>
<g>
	<g>
		<circle cx="491.977" cy="192.78" r="11.636"/>
	</g>
</g>
<g>
	<g>
		<circle cx="44.37" cy="378.176" r="11.636"/>
	</g>
</g>
<g>
	<g>
		<circle cx="467.648" cy="133.795" r="11.636"/>
	</g>
</g>
<g>
	<g>
		<circle cx="83.205" cy="428.782" r="11.636"/>
	</g>
</g>
<g>
	<g>
		<circle cx="428.793" cy="83.206" r="11.636"/>
	</g>
</g>
<g>
	<g>
		<circle cx="133.871" cy="467.619" r="11.636"/>
	</g>
</g>
<g>
	<g>
		<circle cx="378.171" cy="44.352" r="11.636"/>
	</g>
</g>
<g>
	<g>
		<circle cx="192.69" cy="492.008" r="11.636"/>
	</g>
</g>
<g>
	<g>
		<circle cx="319.24" cy="19.975" r="11.636"/>
	</g>
</g>
</svg>